<?xml version="1.0" encoding="UTF-8"?>
<svg version="1.1" xmlns="http://www.w3.org/2000/svg" width="368" height="368">
<path d="M0 0 C121.44 0 242.88 0 368 0 C368 121.44 368 242.88 368 368 C246.56 368 125.12 368 0 368 C0 246.56 0 125.12 0 0 Z " fill="#000000" transform="translate(0,0)"/>
<path d="M0 0 C2.86339924 2.35435048 4.42551186 3.88582342 5.8125 7.3125 C5.95166974 10.5829889 5.49850045 12.42151124 3.4921875 15.02734375 C0.31658972 18.16601597 -2.30744308 19.7363261 -6.8125 20 C-10.42019016 19.75989775 -11.19182719 19.30907431 -14.1875 16.9375 C-17.09414016 13.12253479 -17.6503138 11.12576348 -17.1875 6.3125 C-15.53726991 3.24778698 -14.131424 1.00471093 -11.3125 -1.0625 C-6.87291967 -2.36825892 -4.11583733 -2.1789727 0 0 Z " fill="#0C0A07" transform="translate(97.1875,147.6875)"/>
<path d="M0 0 C2.91128986 1.85854665 5.42922037 3.85844074 7 7 C7.40417552 9.96395382 7.56382171 12.08904926 5.953125 14.69140625 C1.77854078 19.78685464 1.77854078 19.78685464 -1.98828125 20.23828125 C-6.15410332 20.3713075 -8.37869331 20.38831668 -12 18.125 C-15.08022847 14.85225725 -15.34233668 12.53607307 -15.28515625 8.03515625 C-14.72850314 4.06233063 -12.24725669 1.94619473 -9.1875 -0.375 C-5.77489628 -1.35002963 -3.42129198 -0.88481689 0 0 Z " fill="#11100C" transform="translate(153,136)"/>
<path d="M0 0 C2.91128986 1.85854665 5.42922037 3.85844074 7 7 C7.40417552 9.96395382 7.56382171 12.08904926 5.953125 14.69140625 C1.77854078 19.78685464 1.77854078 19.78685464 -1.98828125 20.23828125 C-6.15410332 20.3713075 -8.37869331 20.38831668 -12 18.125 C-15.08022847 14.85225725 -15.34233668 12.53607307 -15.28515625 8.03515625 C-14.72850314 4.06233063 -12.24725669 1.94619473 -9.1875 -0.375 C-5.77489628 -1.35002963 -3.42129198 -0.88481689 0 0 Z M-12 4 C-13.26006315 7.31809464 -13.26006315 7.31809464 -13 11 C-10.77020332 15.25798376 -10.77020332 15.25798376 -7 18 C-4.08461971 18.50042146 -4.08461971 18.50042146 -1 18 C2.12212113 15.28868428 2.90584108 13.58587774 3.5625 9.5 C2.85024299 5.06817859 1.58911308 3.63201626 -2 1 C-6.11253587 0.17749283 -8.85291088 1.29000659 -12 4 Z " fill="#C7C5BA" transform="translate(153,136)"/>
<path d="M0 0 C2.86339924 2.35435048 4.42551186 3.88582342 5.8125 7.3125 C5.95166974 10.5829889 5.49850045 12.42151124 3.4921875 15.02734375 C0.31658972 18.16601597 -2.30744308 19.7363261 -6.8125 20 C-10.42019016 19.75989775 -11.19182719 19.30907431 -14.1875 16.9375 C-17.09414016 13.12253479 -17.6503138 11.12576348 -17.1875 6.3125 C-15.53726991 3.24778698 -14.131424 1.00471093 -11.3125 -1.0625 C-6.87291967 -2.36825892 -4.11583733 -2.1789727 0 0 Z M-14.1875 5.3125 C-15.02083333 8.8125 -15.02083333 8.8125 -14.1875 12.3125 C-11.77346848 15.64954357 -10.25154284 17.04082949 -6.25 18.0625 C-2.29820562 17.09471362 -0.70640765 15.4333468 1.734375 12.25390625 C3.04913051 10.2167314 3.04913051 10.2167314 3 7.125 C1.50205361 3.57723224 0.14308582 2.23683848 -3.1875 0.3125 C-8.62562903 -0.70714919 -11.00090038 0.90749464 -14.1875 5.3125 Z " fill="#DBD7CB" transform="translate(97.1875,147.6875)"/>
<path d="M0 0 C0.66 0.66 1.32 1.32 2 2 C1.625 5.125 1.625 5.125 1 8 C0.67 7.34 0.34 6.68 0 6 C-1.0828125 6.495 -1.0828125 6.495 -2.1875 7 C-5.01697427 8.00603529 -7.02895466 8.16977402 -10 8 C-10.625 5.625 -10.625 5.625 -11 3 C-9 1 -9 1 -5.4375 0.8125 C-2 1 -2 1 -1 2 C-0.67 1.34 -0.34 0.68 0 0 Z " fill="#2C251B" transform="translate(98,152)"/>
<path d="M0 0 C5.29877676 -0.50464541 7.90716575 0.63478073 12 4 C14.53577048 7.10836382 15.06794026 8.27983328 14.6875 12.3125 C14.460625 13.199375 14.23375 14.08625 14 15 C13.01 14.67 12.02 14.34 11 14 C11.103125 13.113125 11.20625 12.22625 11.3125 11.3125 C11.28466636 7.86212881 11.28466636 7.86212881 8.875 5.25 C5.93237978 2.94707983 3.59593164 1.91988949 0 1 C0 0.67 0 0.34 0 0 Z " fill="#C5BEB1" transform="translate(88,146)"/>
<path d="M0 0 C6.10484805 0.36629088 9.00301001 1.5155722 13 6 C13.375 9.8125 13.375 9.8125 13 13 C12.34 13 11.68 13 11 13 C10.7525 12.0925 10.505 11.185 10.25 10.25 C8.91726137 6.78487956 7.95195381 5.21396536 5 3 C1.85518209 2.19684346 1.85518209 2.19684346 -1 2 C-0.67 1.34 -0.34 0.68 0 0 Z " fill="#DAD7D1" transform="translate(146,135)"/>
<path d="M0 0 C1.4540625 0.0309375 1.4540625 0.0309375 2.9375 0.0625 C2.6075 1.3825 2.2775 2.7025 1.9375 4.0625 C0.6175 4.0625 -0.7025 4.0625 -2.0625 4.0625 C-2.0625 4.7225 -2.0625 5.3825 -2.0625 6.0625 C-3.0525 6.0625 -4.0425 6.0625 -5.0625 6.0625 C-3.98897059 0.08140756 -3.98897059 0.08140756 0 0 Z " fill="#4B463B" transform="translate(92.0625,152.9375)"/>
<path d="M0 0 C0.66 0.66 1.32 1.32 2 2 C1.0409375 2.2784375 1.0409375 2.2784375 0.0625 2.5625 C-2.37658879 3.92345696 -2.37658879 3.92345696 -2.8125 7.375 C-2.96546557 10.33233428 -2.98523156 12.26324567 -2 15 C-3.32 14.67 -4.64 14.34 -6 14 C-6.49029622 6.76813075 -6.49029622 6.76813075 -4.125 3.0625 C-2 1 -2 1 0 0 Z " fill="#B9B6A8" transform="translate(144,136)"/>
<path d="M0 0 C1.98 0 3.96 0 6 0 C5.34 1.32 4.68 2.64 4 4 C4.66 4.66 5.32 5.32 6 6 C4.33388095 6.042721 2.66617115 6.04063832 1 6 C0 5 0 5 -0.0625 2.4375 C-0.041875 1.633125 -0.02125 0.82875 0 0 Z " fill="#5D5B52" transform="translate(144,143)"/>
<path d="M0 0 C0.99 0.33 1.98 0.66 3 1 C2.21625 1.763125 1.4325 2.52625 0.625 3.3125 C-2.07257717 5.90891805 -2.07257717 5.90891805 -4 9 C-4.66 9 -5.32 9 -6 9 C-5.12467243 5.71752159 -4.49145848 3.49145848 -2.0625 1.0625 C-1.381875 0.711875 -0.70125 0.36125 0 0 Z " fill="#E7E6DA" transform="translate(86,147)"/>
<path d="M0 0 C3.465 1.98 3.465 1.98 7 4 C5.02 4.99 5.02 4.99 3 6 C1.5 4.6875 1.5 4.6875 0 3 C0 2.01 0 1.02 0 0 Z " fill="#D0D0C3" transform="translate(139,149)"/>
<path d="M0 0 C0.99 0.33 1.98 0.66 3 1 C3 3.31 3 5.62 3 8 C2.34 8 1.68 8 1 8 C0.67 5.36 0.34 2.72 0 0 Z " fill="#F2ECD8" transform="translate(156,140)"/>
<path d="M0 0 C1.98 0 3.96 0 6 0 C6 0.66 6 1.32 6 2 C3.69 2.33 1.38 2.66 -1 3 C-0.67 2.01 -0.34 1.02 0 0 Z " fill="#7E7A6F" transform="translate(89,153)"/>
</svg>
